<svg width="31" height="31" viewBox="0 0 31 31" fill="none" xmlns="http://www.w3.org/2000/svg">
<g clip-path="url(#clip0_5_1973)">
<path d="M23.1725 23.1725C20.9645 24.8555 18.2759 25.7879 15.5 25.8333C6.45833 25.8333 1.29166 15.5 1.29166 15.5C2.89836 12.5058 5.1268 9.88978 7.8275 7.82749M12.7875 5.47666C13.6766 5.26854 14.5869 5.16451 15.5 5.16666C24.5417 5.16666 29.7083 15.5 29.7083 15.5C28.9243 16.9668 27.9892 18.3478 26.9183 19.6204M18.2383 18.2383C17.8836 18.619 17.4558 18.9244 16.9804 19.1362C16.5051 19.348 15.992 19.4619 15.4717 19.471C14.9514 19.4802 14.4346 19.3845 13.9521 19.1896C13.4696 18.9947 13.0313 18.7047 12.6633 18.3367C12.2953 17.9687 12.0053 17.5304 11.8104 17.0479C11.6155 16.5654 11.5198 16.0486 11.5289 15.5283C11.5381 15.008 11.652 14.4949 11.8638 14.0195C12.0756 13.5442 12.381 13.1164 12.7617 12.7617" stroke="#FCF6E1" stroke-width="2" stroke-linecap="round" stroke-linejoin="round"/>
<path d="M1.29166 1.29169L29.7083 29.7084" stroke="#FCF6E1" stroke-width="2" stroke-linecap="round" stroke-linejoin="round"/>
</g>
<defs>
<clipPath id="clip0_5_1973">
<rect width="31" height="31" fill="white"/>
</clipPath>
</defs>
</svg>
