<svg xmlns="http://www.w3.org/2000/svg" version="1.1" xmlns:xlink="http://www.w3.org/1999/xlink" xmlns:svgjs="http://svgjs.com/svgjs" width="360" height="800" preserveAspectRatio="none" viewBox="0 0 360 800"><g mask="url(&quot;#SvgjsMask2075&quot;)" fill="none"><rect width="360" height="800" x="0" y="0" fill="url(#SvgjsLinearGradient2076)"></rect><path d="M78.095,754.373C96.94,753.936,109.542,737.61,119.401,721.544C129.932,704.382,140.72,684.728,131.953,666.602C122.328,646.701,100.125,634.311,78.095,636.137C58.298,637.778,46.816,656.728,37.761,674.409C29.727,690.095,25.394,707.805,33.331,723.541C42.077,740.879,58.681,754.823,78.095,754.373" fill="rgba(16, 16, 16, 0.38)" class="triangle-float2"></path><path d="M376.256,766.818C407.14,767.059,438.476,756.562,454.564,730.198C471.263,702.833,469.468,668.189,453.356,640.474C437.329,612.905,408.126,594.403,376.256,595.5C346.001,596.542,322.846,619.195,307.836,645.485C292.979,671.506,285.321,702.891,300.039,728.991C314.971,755.47,345.858,766.581,376.256,766.818" fill="rgba(16, 16, 16, 0.38)" class="triangle-float1"></path><path d="M299.284,128.913C331.202,130.559,362.036,114.09,377.991,86.397C393.922,58.745,392.252,24.103,375.219,-2.885C359.242,-28.201,329.204,-39.286,299.284,-38.312C271.148,-37.396,245.236,-22.753,231.459,1.797C217.966,25.842,220.503,54.621,233.482,78.947C247.378,104.991,269.804,127.393,299.284,128.913" fill="rgba(16, 16, 16, 0.38)" class="triangle-float3"></path><path d="M286.306,699.292C302.165,699.592,318.784,694.198,326.44,680.306C333.902,666.766,328.307,650.735,320.386,637.459C312.712,624.597,301.264,613.823,286.306,613.043C269.999,612.193,253.561,619.375,245.461,633.553C237.415,647.637,240.159,665.059,248.719,678.836C256.788,691.822,271.02,699.003,286.306,699.292" fill="rgba(16, 16, 16, 0.38)" class="triangle-float3"></path><path d="M209.87423310591663 275.6953708680252L195.01159046714056 169.20589311196971 119.94716801906915 225.770992666341z" fill="rgba(16, 16, 16, 0.38)" class="triangle-float2"></path><path d="M319.347,411.297C329.154,410.544,336.088,402.775,340.939,394.218C345.704,385.813,348.51,376.047,344.247,367.376C339.488,357.696,330.13,350.009,319.347,350.299C308.925,350.579,301.966,359.678,296.662,368.654C291.227,377.851,286.116,388.61,291.133,398.041C296.364,407.873,308.243,412.149,319.347,411.297" fill="rgba(16, 16, 16, 0.38)" class="triangle-float3"></path><path d="M132.103,543.182C144.72,543.102,156.753,536.152,162.255,524.798C167.224,514.543,162.109,503.219,156.184,493.486C150.574,484.271,142.875,475.855,132.103,475.27C120.374,474.633,109.189,480.603,103.018,490.597C96.518,501.124,95.293,514.358,101.281,525.184C107.453,536.342,119.352,543.263,132.103,543.182" fill="rgba(16, 16, 16, 0.38)" class="triangle-float2"></path><path d="M83.846,275.996C115.182,275.634,149.342,272.071,166.131,245.61C183.861,217.665,177.693,182.124,161.833,153.077C145.176,122.57,118.604,95.053,83.846,94.911C48.904,94.768,21.846,121.963,4.748,152.436C-11.92,182.141,-20.166,218.865,-1.802,247.552C15.581,274.707,51.606,276.369,83.846,275.996" fill="rgba(16, 16, 16, 0.38)" class="triangle-float2"></path><path d="M57.577,507.023C82.874,507.953,108.767,499.206,122.064,477.665C135.971,455.136,135.78,425.818,121.444,403.559C108.103,382.845,82.214,377.817,57.577,377.538C32.28,377.252,4.066,380.328,-8.844,402.085C-21.929,424.137,-12.9,451.538,0.814,473.205C13.439,493.151,33.987,506.155,57.577,507.023" fill="rgba(16, 16, 16, 0.38)" class="triangle-float2"></path><path d="M57.84865643612709 563.2357508460101L96.56945936682888 601.9565537767119 135.29026229753063 524.5149479153083z" fill="rgba(16, 16, 16, 0.38)" class="triangle-float2"></path></g><defs><mask id="SvgjsMask2075"><rect width="360" height="800" fill="#ffffff"></rect></mask><linearGradient x1="-30.56%" y1="13.75%" x2="130.56%" y2="86.25%" gradientUnits="userSpaceOnUse" id="SvgjsLinearGradient2076"><stop stop-color="rgba(69, 101, 109, 1)" offset="0.42"></stop><stop stop-color="rgba(251, 85, 119, 1)" offset="1"></stop></linearGradient><style>
            @keyframes float1 {
                0%{transform: translate(0, 0)}
                50%{transform: translate(-10px, 0)}
                100%{transform: translate(0, 0)}
            }

            .triangle-float1 {
                animation: float1 5s infinite;
            }

            @keyframes float2 {
                0%{transform: translate(0, 0)}
                50%{transform: translate(-5px, -5px)}
                100%{transform: translate(0, 0)}
            }

            .triangle-float2 {
                animation: float2 4s infinite;
            }

            @keyframes float3 {
                0%{transform: translate(0, 0)}
                50%{transform: translate(0, -10px)}
                100%{transform: translate(0, 0)}
            }

            .triangle-float3 {
                animation: float3 6s infinite;
            }
        </style></defs></svg>