<svg id="Logo_Personal_2_Imagen" data-name="Logo Personal 2 Imagen" xmlns="http://www.w3.org/2000/svg" viewBox="0 0 797.26 909.9"><defs><style>.cls-1{fill:#0d6dff;}</style></defs><path class="cls-1" d="M438.33,375.78c-.22,3.44,0,7.44,0,9.73.07,49.44.12,98.88-.1,148.32a14.58,14.58,0,0,1-3.66,9.3q-68.56,69-137.48,137.71l-3.59,3.59c-1.48-1.3-2.91-2.41-4.17-3.69Q240.67,631.27,192,581.83c-2.86-2.88-3.1-5.21-1.75-8.81q65-174.33,129.73-348.77c4.83-13,7.73-26.77,12.41-39.87,4.39-12.25,10-24.06,15-36.12,1.81-4.4,4.76-4.72,9.08-4a786.64,786.64,0,0,0,299.68-7.61A524.3,524.3,0,0,0,815.26,73.12c13.19-7.92,26.94-14.91,40.34-22.5,3-1.68,5.14-2.15,7.56.84,3.43,4.26,7.13,8.31,10.82,12.35,3.14,3.44,2.17,5.86-1,9q-46.11,45.77-91.95,91.81c-36.6,36.61-73.35,73.06-109.71,109.91-16.31,16.53-31.3,34.39-47.86,50.67-12.75,12.53-26.26,24.58-40.77,35-20.3,14.51-44.24,18.2-68.74,17.94-18.8-.19-37.59-1-56.39-1.25C451.51,376.73,447,375.9,438.33,375.78Z" transform="translate(-108.35 -49.29)"/><path class="cls-1" d="M172.28,580.87c-6.81,1.68-12.6,2.7-18.12,4.54-17,5.68-25,17.76-21,35.16,2.93,12.81,7.83,25.39,13.47,37.31,29.45,62.14,72.79,114,121.77,161.41,41.45,40.16,86.18,76,138.72,100.79A226.3,226.3,0,0,0,446.9,934.3c7.17,1.86,15.65,1.12,23-.7,8.87-2.2,14.74-8.65,15.42-18.65.32-4.81,1.15-9.58,1.93-15.83a44.21,44.21,0,0,1,2.89,5.14c4.88,13.32,4.26,26.67-1,39.59-4.28,10.53-13.38,15.74-24.17,15.31a130.49,130.49,0,0,1-32.9-5.18c-29.49-9.08-56-24.53-81.26-41.92C280.4,863.61,220.1,804.62,169.43,735.86a418.15,418.15,0,0,1-54.39-99,108.05,108.05,0,0,1-6.52-28.21c-1.42-15,6-24.38,20.57-28.37C139.9,577.32,160,577.43,172.28,580.87Z" transform="translate(-108.35 -49.29)"/><path class="cls-1" d="M490.1,879.33,305.19,694.43l5-5Q377.9,621.73,445.51,554a13.94,13.94,0,0,1,11.05-4.53c48.8.42,97.77,1.54,146.58,1.86l7.33.05c.13-3.8.26-6.26.27-8.72.28-49.65.48-99.3,1-148.95a14.54,14.54,0,0,1,3.74-9.28Q759.35,241,903.52,97.91c.45-.44,1-.84,2.09-1.84a23.69,23.69,0,0,1-.85,3.67Q792.13,365.39,679.52,631.06c-13.72,32.44-26.19,65.4-39.34,98.09a22.12,22.12,0,0,1-4.48,7.44Q564.35,807.3,492.79,877.82c-.5.49-1.08.91-1.88,1.56A.61.61,0,0,1,490.1,879.33Zm148-301.68a26.27,26.27,0,0,1-2.72.38c-39.72.1-79.44.24-119.16.19-4.31,0-5.65.92-4.53,6.47a31.93,31.93,0,0,1,.72,6c.21,14.71-1.42,29.4-1.44,44.11a53.51,53.51,0,0,0,14.68,36.91c17.35,18.25,39,26.27,63.33,28.4,4.79.42,7-1.07,9-5.43q64.9-143.59,130.13-287c8.35-18.42,16.68-36.86,25.13-55.55l-31.52-27.74L717.05,329q-37.18,37.19-74.44,74.3a14.82,14.82,0,0,0-4.38,10.55q.21,78.3.08,156.59C638.31,572.75,638.21,575,638.15,577.65Z" transform="translate(-108.35 -49.29)"/><path class="cls-1" d="M479.45,417.36a1.38,1.38,0,0,0-1.17,1.18c-1.33,9.33-2.54,18.19-3.87,27-.34,2.27-.69,5-1.79,6.54-2.18,3-3.14,4.12-5.95,5.37-.69.31-4.46-.73-4.77-1.42a15.2,15.2,0,0,1-1.29-7.2c1.19-11.76,3.07-23.44,4.58-35.16.73-5.61,3.63-8.63,9.34-9.33,11.74-1.43,23.44-3.17,35.17-4.65,3.21-.4,8-1.58,7.89,3.25-.08,3.22-3,6.92-5.68,9.32-1.72,1.55-5.21,1.23-7.92,1.62C496,415.08,487.93,416.18,479.45,417.36Z" transform="translate(-108.35 -49.29)"/><path class="cls-1" d="M570.34,509.73c1.52-10.35,2.85-20.36,4.56-30.3.44-2.54,1.45-5.73,3.31-7.09a10.73,10.73,0,0,1,8-1.33c1.19.3,2.29,4.24,2,6.37-1.36,11.94-3.16,23.83-4.76,35.73-.79,5.8-4.19,9-9.82,9.8-11.69,1.64-23.4,3.16-35.11,4.69-3.16.41-6.79,1.13-7.67-3.24s1.23-8.15,5.55-9.33c5.26-1.44,10.76-2,16.18-2.81C558.48,511.33,564.31,510.57,570.34,509.73Z" transform="translate(-108.35 -49.29)"/><path class="cls-1" d="M509,459.06a20.38,20.38,0,0,0,4.35,3.4c.83.48,1.67.93,2.53,1.35a2,2,0,0,0,1.9-.09c3-1.85,6.11-3.61,9.19-5.36a2,2,0,0,0-.22-3.56h0a34.73,34.73,0,0,1-4.44-2.14,10.82,10.82,0,0,1-3.13-2.61,5.36,5.36,0,0,1-1.17-3.46,6.37,6.37,0,0,1,.52-2.56,5.34,5.34,0,0,1,1.59-2.07,8,8,0,0,1,2.66-1.35,12.9,12.9,0,0,1,3.72-.49,18.85,18.85,0,0,1,5,.63,28.34,28.34,0,0,1,4,1.4c1.16.51,2.14,1,2.93,1.41a4.34,4.34,0,0,0,1.74.66,1.3,1.3,0,0,0,.87-.28,1.8,1.8,0,0,0,.5-.89,8.39,8.39,0,0,0,.25-1.53c0-.62.07-1.38.07-2.28s0-1.48,0-2a8.19,8.19,0,0,0-.17-1.35,4,4,0,0,0-.3-.86,3.45,3.45,0,0,0-.67-.79,8.42,8.42,0,0,0-2-1.17,25.08,25.08,0,0,0-3.52-1.25,34,34,0,0,0-4.28-.89,33.32,33.32,0,0,0-4.57-.32,32.1,32.1,0,0,0-8.37,1.07,20.19,20.19,0,0,0-6.85,3.23,15.8,15.8,0,0,0-4.62,5.44,16.23,16.23,0,0,0-1.71,7.61A15.18,15.18,0,0,0,509,459.06Z" transform="translate(-108.35 -49.29)"/><path class="cls-1" d="M540.13,465a20,20,0,0,0-3.68-2.95c-1-.69-.44-.56-1.54,0-3.1,1.82-6.25,3.58-9.38,5.37a2,2,0,0,0,.08,3.45c.34.18.67.36,1,.55a11.54,11.54,0,0,1,3.1,2.61,5.33,5.33,0,0,1,1.19,3.51,7.33,7.33,0,0,1-.69,3.21,6.7,6.7,0,0,1-2,2.42A10,10,0,0,1,525,484.7a15.94,15.94,0,0,1-4.27.53,23.53,23.53,0,0,1-6.38-.77,30.77,30.77,0,0,1-4.75-1.69c-1.32-.62-2.4-1.19-3.25-1.7a4.31,4.31,0,0,0-2-.77,1.51,1.51,0,0,0-.87.26,1.74,1.74,0,0,0-.6.86,6.71,6.71,0,0,0-.32,1.58,23.44,23.44,0,0,0-.1,2.42,15.11,15.11,0,0,0,.27,3.28,3.45,3.45,0,0,0,.92,1.74,11,11,0,0,0,2.11,1.4,23.63,23.63,0,0,0,3.66,1.51,36.52,36.52,0,0,0,5,1.23,35.13,35.13,0,0,0,6.18.51,34,34,0,0,0,9.24-1.21,22.68,22.68,0,0,0,7.55-3.6,17,17,0,0,0,7-14.3,15.27,15.27,0,0,0-1.19-6.3A15.64,15.64,0,0,0,540.13,465Z" transform="translate(-108.35 -49.29)"/></svg>